# xmcd
#
# Track frame offsets: 
#        150
#        30799
#        51480
#        75959
#        94230
#        113924
#        131860
#        152575
#        173162
#        212341
#        237840
#        263450
#        293005
#        325139
#
# Disc length: 4761 seconds
#
# Revision: 0
# Processed by: cddbd v1.5.2PL0 Copyright (c) Steve Scherf et al.
# Submitted via: ExactAudioCopy v1.0b3
#
DISCID=ad12970e
DTITLE=The Gap Band - Gap Band 8
DYEAR=1986
DGENRE=R&B
TTITLE0=Big Fun
TTITLE1=I Can't Live Without Your Love
TTITLE2=Get Loose, Get Funky
TTITLE3=Don't Take It Away
TTITLE4=Keep Holding On
TTITLE5=I'll Always Love You
TTITLE6=Bop B Da B Da Da (How Music Came About)
TTITLE7=I Owe It To Myself
TTITLE8=Big Fun (Mega Mix)
TTITLE9=Zibble, Zibble (Get The Money) (AKA: Get Loose, Get Funky) (Du
TTITLE9=b-Zibble Money Mix)
TTITLE10=Bop B Da B Da Da (How Music Came About) (Extended Version)
TTITLE11=I Owe It To Myself (Remix)
TTITLE12=Big Fun (Serious Dub Mix)
TTITLE13=Big Fun (Bandolero Mix)
EXTD=
EXTT0=
EXTT1=
EXTT2=
EXTT3=
EXTT4=
EXTT5=
EXTT6=
EXTT7=
EXTT8=
EXTT9=
EXTT10=
EXTT11=
EXTT12=
EXTT13=
PLAYORDER=
